# xmcd CD database file
#
# Track frame offsets:
#	150
#	32027
#	58432
#	80480
#	107145
#	133672
#	156902
#	182197
#	187792
#	197707
#
# Disc length: 2864 seconds
#
# Revision: 4
# Processed by: cddbd v1.5.2PL0 Copyright (c) Steve Scherf et al.
# Submitted via: CDex 1.70beta2
#
DISCID=8b0b2e0a
DTITLE=細野晴臣 - S-F-X 
DYEAR=1984
DGENRE=Techno
TTITLE0=Non-Standard Mixture
TTITLE1=Body Snatchers (Special Mix)
TTITLE2=Androgena
TTITLE3=SFX
TTITLE4=Strange Love
TTITLE5=Alternative 3（第３の選択）
TTITLE6=Dark Side Of The Star（地球の夜にむけての夜想曲）
TTITLE7=Medium Composition ;#1
TTITLE8=Medium Composition ;#2
TTITLE9=3-6-9（ミロク）
EXTD=YEAR: 1984
EXTT0=
EXTT1=
EXTT2=
EXTT3=
EXTT4=
EXTT5=
EXTT6=
EXTT7=
EXTT8=
EXTT9=
PLAYORDER=
